<?xml version="1.0" encoding="utf-8"?>
<!-- Generator: Adobe Illustrator 15.1.0, SVG Export Plug-In . SVG Version: 6.00 Build 0)  -->
<!DOCTYPE svg PUBLIC "-//W3C//DTD SVG 1.1//EN" "http://www.w3.org/Graphics/SVG/1.1/DTD/svg11.dtd">
<svg version="1.1" id="Layer_1" xmlns="http://www.w3.org/2000/svg" xmlns:xlink="http://www.w3.org/1999/xlink" x="0px" y="0px"
	 width="150px" height="150px" viewBox="0 0 150 150" enable-background="new 0 0 150 150" xml:space="preserve">
<g>
	<rect x="25.5" y="38.872" fill="#1F3D73" width="100" height="66.664"/>
	<g>
		<g>
			<rect x="25.501" y="38.872" fill="#1F3D73" width="49.93" height="33.172"/>
		</g>
		<polygon fill="#FFFFFF" points="44.884,55.456 25.501,42.586 25.501,38.872 31.072,38.869 50.467,51.749 69.861,38.869 
			75.431,38.872 75.431,42.586 56.057,55.457 75.431,68.329 75.431,72.043 69.855,72.043 50.467,59.165 31.078,72.043 
			25.501,72.043 25.501,68.329 		"/>
		<path fill="#EF3E42" d="M41.667,52.075L25.501,41.339v-2.467l18.71,12.426l6.14,2.316c0,0,2.657-2.303,2.652-2.316l18.711-12.426
			l3.716,0l-19.88,13.203l-0.693,4.458c0,0,4.508,2.304,4.407,2.306l16.167,10.736l-0.001,2.471L56.672,59.585l-6.667-1.824
			c0,0-2.081,1.842-2.029,1.824l-18.76,12.459L25.5,72.04l19.882-13.202c-0.115,0.002,1.039-4.303,1.039-4.303
			S41.683,52.079,41.667,52.075z"/>
		<polygon fill="#FFFFFF" points="46.306,49.929 46.306,38.872 54.627,38.872 54.627,49.929 75.431,49.929 75.431,60.986 
			54.627,60.986 54.627,72.043 46.306,72.043 46.306,60.986 25.501,60.986 25.501,49.929 		"/>
		<polyline fill="#EF3E42" points="52.957,52.147 52.963,38.872 47.97,38.872 47.976,52.147 25.501,52.14 25.501,58.774 
			47.976,58.767 47.97,72.043 52.963,72.043 52.957,58.767 75.431,58.774 75.431,52.14 52.957,52.147 		"/>
		<g>
			<line fill="none" x1="46.306" y1="38.872" x2="54.627" y2="38.872"/>
			<line fill="none" x1="75.431" y1="49.929" x2="75.431" y2="60.986"/>
			<line fill="none" x1="54.627" y1="72.043" x2="46.306" y2="72.043"/>
			<line fill="none" x1="25.501" y1="60.986" x2="25.501" y2="49.929"/>
		</g>
		<g>
			<polygon fill="#EF3E42" stroke="#FFFFFF" stroke-width="0.3333" points="96.647,95.862 98.022,91.629 94.422,89.014 
				98.873,89.014 100.248,84.782 101.623,89.014 106.074,89.014 102.473,91.631 103.849,95.863 100.248,93.246 			"/>
		</g>
		<g>
			<polygon fill="#EF3E42" stroke="#FFFFFF" stroke-width="0.3333" points="97.423,55.653 98.502,52.331 95.677,50.279 
				99.169,50.279 100.248,46.958 101.327,50.279 104.819,50.279 101.994,52.332 103.073,55.653 100.248,53.6 			"/>
		</g>
		<g>
			<polygon fill="#EF3E42" stroke="#FFFFFF" stroke-width="0.3333" points="82.496,70.948 83.597,67.562 80.715,65.468 
				84.277,65.468 85.379,62.08 86.479,65.468 90.041,65.468 87.159,67.562 88.26,70.948 85.378,68.854 			"/>
		</g>
		<g>
			<polygon fill="#EF3E42" stroke="#FFFFFF" stroke-width="0.3333" points="109.994,67.958 111.095,64.57 108.213,62.476 
				111.775,62.476 112.875,59.089 113.977,62.476 117.537,62.476 114.656,64.57 115.758,67.958 112.875,65.864 			"/>
		</g>
	</g>
</g>
</svg>
